<svg id="visual" viewBox="0 0 900 600" width="900" height="600" xmlns="http://www.w3.org/2000/svg" xmlns:xlink="http://www.w3.org/1999/xlink" version="1.1"><path d="M0 55L18.8 50.3C37.7 45.7 75.3 36.3 112.8 34.2C150.3 32 187.7 37 225.2 36.3C262.7 35.7 300.3 29.3 337.8 32.2C375.3 35 412.7 47 450.2 51.5C487.7 56 525.3 53 562.8 47.5C600.3 42 637.7 34 675.2 32C712.7 30 750.3 34 787.8 37.3C825.3 40.7 862.7 43.3 881.3 44.7L900 46L900 0L881.3 0C862.7 0 825.3 0 787.8 0C750.3 0 712.7 0 675.2 0C637.7 0 600.3 0 562.8 0C525.3 0 487.7 0 450.2 0C412.7 0 375.3 0 337.8 0C300.3 0 262.7 0 225.2 0C187.7 0 150.3 0 112.8 0C75.3 0 37.7 0 18.8 0L0 0Z" fill="#c43ad6"></path><path d="M0 28L18.8 30C37.7 32 75.3 36 112.8 37.5C150.3 39 187.7 38 225.2 38.2C262.7 38.3 300.3 39.7 337.8 40.8C375.3 42 412.7 43 450.2 41C487.7 39 525.3 34 562.8 31.8C600.3 29.7 637.7 30.3 675.2 29.7C712.7 29 750.3 27 787.8 29.2C825.3 31.3 862.7 37.7 881.3 40.8L900 44L900 0L881.3 0C862.7 0 825.3 0 787.8 0C750.3 0 712.7 0 675.2 0C637.7 0 600.3 0 562.8 0C525.3 0 487.7 0 450.2 0C412.7 0 375.3 0 337.8 0C300.3 0 262.7 0 225.2 0C187.7 0 150.3 0 112.8 0C75.3 0 37.7 0 18.8 0L0 0Z" fill="#906ff7"></path><path d="M0 19L18.8 21.5C37.7 24 75.3 29 112.8 31.2C150.3 33.3 187.7 32.7 225.2 32.8C262.7 33 300.3 34 337.8 35C375.3 36 412.7 37 450.2 35C487.7 33 525.3 28 562.8 25.3C600.3 22.7 637.7 22.3 675.2 20.3C712.7 18.3 750.3 14.7 787.8 17.5C825.3 20.3 862.7 29.7 881.3 34.3L900 39L900 0L881.3 0C862.7 0 825.3 0 787.8 0C750.3 0 712.7 0 675.2 0C637.7 0 600.3 0 562.8 0C525.3 0 487.7 0 450.2 0C412.7 0 375.3 0 337.8 0C300.3 0 262.7 0 225.2 0C187.7 0 150.3 0 112.8 0C75.3 0 37.7 0 18.8 0L0 0Z" fill="#528fff"></path><path d="M0 12L18.8 15.8C37.7 19.7 75.3 27.3 112.8 27.2C150.3 27 187.7 19 225.2 15.5C262.7 12 300.3 13 337.8 16.8C375.3 20.7 412.7 27.3 450.2 30.3C487.7 33.3 525.3 32.7 562.8 29.8C600.3 27 637.7 22 675.2 20.2C712.7 18.3 750.3 19.7 787.8 22.3C825.3 25 862.7 29 881.3 31L900 33L900 0L881.3 0C862.7 0 825.3 0 787.8 0C750.3 0 712.7 0 675.2 0C637.7 0 600.3 0 562.8 0C525.3 0 487.7 0 450.2 0C412.7 0 375.3 0 337.8 0C300.3 0 262.7 0 225.2 0C187.7 0 150.3 0 112.8 0C75.3 0 37.7 0 18.8 0L0 0Z" fill="#00a6ff"></path><path d="M0 27L18.8 27.2C37.7 27.3 75.3 27.7 112.8 25.5C150.3 23.3 187.7 18.7 225.2 17C262.7 15.3 300.3 16.7 337.8 17.5C375.3 18.3 412.7 18.7 450.2 19.8C487.7 21 525.3 23 562.8 23.7C600.3 24.3 637.7 23.7 675.2 21.7C712.7 19.7 750.3 16.3 787.8 13.7C825.3 11 862.7 9 881.3 8L900 7L900 0L881.3 0C862.7 0 825.3 0 787.8 0C750.3 0 712.7 0 675.2 0C637.7 0 600.3 0 562.8 0C525.3 0 487.7 0 450.2 0C412.7 0 375.3 0 337.8 0C300.3 0 262.7 0 225.2 0C187.7 0 150.3 0 112.8 0C75.3 0 37.7 0 18.8 0L0 0Z" fill="#00b7f7"></path><path d="M0 7L18.8 9.2C37.7 11.3 75.3 15.7 112.8 18C150.3 20.3 187.7 20.7 225.2 20.7C262.7 20.7 300.3 20.3 337.8 20.2C375.3 20 412.7 20 450.2 18.3C487.7 16.7 525.3 13.3 562.8 12C600.3 10.7 637.7 11.3 675.2 13C712.7 14.7 750.3 17.3 787.8 16.3C825.3 15.3 862.7 10.7 881.3 8.3L900 6L900 0L881.3 0C862.7 0 825.3 0 787.8 0C750.3 0 712.7 0 675.2 0C637.7 0 600.3 0 562.8 0C525.3 0 487.7 0 450.2 0C412.7 0 375.3 0 337.8 0C300.3 0 262.7 0 225.2 0C187.7 0 150.3 0 112.8 0C75.3 0 37.7 0 18.8 0L0 0Z" fill="#00c5e5"></path><path d="M0 5L18.8 5.5C37.7 6 75.3 7 112.8 6.5C150.3 6 187.7 4 225.2 4.3C262.7 4.7 300.3 7.3 337.8 7.5C375.3 7.7 412.7 5.3 450.2 3.7C487.7 2 525.3 1 562.8 0.5C600.3 0 637.7 0 675.2 0C712.7 0 750.3 0 787.8 0.3C825.3 0.7 862.7 1.3 881.3 1.7L900 2L900 0L881.3 0C862.7 0 825.3 0 787.8 0C750.3 0 712.7 0 675.2 0C637.7 0 600.3 0 562.8 0C525.3 0 487.7 0 450.2 0C412.7 0 375.3 0 337.8 0C300.3 0 262.7 0 225.2 0C187.7 0 150.3 0 112.8 0C75.3 0 37.7 0 18.8 0L0 0Z" fill="#30cfd0"></path></svg>