<svg id="visual" viewBox="0 0 960 540" width="960" height="540" xmlns="http://www.w3.org/2000/svg" xmlns:xlink="http://www.w3.org/1999/xlink" version="1.1"><path d="M0 405L26.7 397.7C53.3 390.3 106.7 375.7 160 373.3C213.3 371 266.7 381 320 393.2C373.3 405.3 426.7 419.7 480 422.5C533.3 425.3 586.7 416.7 640 416C693.3 415.3 746.7 422.7 800 422.7C853.3 422.7 906.7 415.3 933.3 411.7L960 408L960 541L933.3 541C906.7 541 853.3 541 800 541C746.7 541 693.3 541 640 541C586.7 541 533.3 541 480 541C426.7 541 373.3 541 320 541C266.7 541 213.3 541 160 541C106.7 541 53.3 541 26.7 541L0 541Z" fill="#c43ad6"></path><path d="M0 384L26.7 384C53.3 384 106.7 384 160 392.8C213.3 401.7 266.7 419.3 320 430.3C373.3 441.3 426.7 445.7 480 445.2C533.3 444.7 586.7 439.3 640 436.2C693.3 433 746.7 432 800 434C853.3 436 906.7 441 933.3 443.5L960 446L960 541L933.3 541C906.7 541 853.3 541 800 541C746.7 541 693.3 541 640 541C586.7 541 533.3 541 480 541C426.7 541 373.3 541 320 541C266.7 541 213.3 541 160 541C106.7 541 53.3 541 26.7 541L0 541Z" fill="#8476fb"></path><path d="M0 470L26.7 468C53.3 466 106.7 462 160 458.2C213.3 454.3 266.7 450.7 320 442.7C373.3 434.7 426.7 422.3 480 420.7C533.3 419 586.7 428 640 430.5C693.3 433 746.7 429 800 426.5C853.3 424 906.7 423 933.3 422.5L960 422L960 541L933.3 541C906.7 541 853.3 541 800 541C746.7 541 693.3 541 640 541C586.7 541 533.3 541 480 541C426.7 541 373.3 541 320 541C266.7 541 213.3 541 160 541C106.7 541 53.3 541 26.7 541L0 541Z" fill="#3699ff"></path><path d="M0 467L26.7 467.7C53.3 468.3 106.7 469.7 160 465C213.3 460.3 266.7 449.7 320 446.8C373.3 444 426.7 449 480 455C533.3 461 586.7 468 640 470.5C693.3 473 746.7 471 800 465.2C853.3 459.3 906.7 449.7 933.3 444.8L960 440L960 541L933.3 541C906.7 541 853.3 541 800 541C746.7 541 693.3 541 640 541C586.7 541 533.3 541 480 541C426.7 541 373.3 541 320 541C266.7 541 213.3 541 160 541C106.7 541 53.3 541 26.7 541L0 541Z" fill="#00b1fc"></path><path d="M0 480L26.7 476.3C53.3 472.7 106.7 465.3 160 466.2C213.3 467 266.7 476 320 481.2C373.3 486.3 426.7 487.7 480 489.2C533.3 490.7 586.7 492.3 640 488.3C693.3 484.3 746.7 474.7 800 471.3C853.3 468 906.7 471 933.3 472.5L960 474L960 541L933.3 541C906.7 541 853.3 541 800 541C746.7 541 693.3 541 640 541C586.7 541 533.3 541 480 541C426.7 541 373.3 541 320 541C266.7 541 213.3 541 160 541C106.7 541 53.3 541 26.7 541L0 541Z" fill="#00c2e9"></path><path d="M0 491L26.7 493.2C53.3 495.3 106.7 499.7 160 499.5C213.3 499.3 266.7 494.7 320 494C373.3 493.3 426.7 496.7 480 498C533.3 499.3 586.7 498.7 640 496.8C693.3 495 746.7 492 800 490.8C853.3 489.7 906.7 490.3 933.3 490.7L960 491L960 541L933.3 541C906.7 541 853.3 541 800 541C746.7 541 693.3 541 640 541C586.7 541 533.3 541 480 541C426.7 541 373.3 541 320 541C266.7 541 213.3 541 160 541C106.7 541 53.3 541 26.7 541L0 541Z" fill="#30cfd0"></path></svg>