<svg id="visual" viewBox="0 0 960 540" width="960" height="540" xmlns="http://www.w3.org/2000/svg" xmlns:xlink="http://www.w3.org/1999/xlink" version="1.1"><path d="M0 37L26.7 41.8C53.3 46.7 106.7 56.3 160 59.3C213.3 62.3 266.7 58.7 320 58.7C373.3 58.7 426.7 62.3 480 65.5C533.3 68.7 586.7 71.3 640 69.2C693.3 67 746.7 60 800 55.5C853.3 51 906.7 49 933.3 48L960 47L960 0L933.3 0C906.7 0 853.3 0 800 0C746.7 0 693.3 0 640 0C586.7 0 533.3 0 480 0C426.7 0 373.3 0 320 0C266.7 0 213.3 0 160 0C106.7 0 53.3 0 26.7 0L0 0Z" fill="#c43ad6"></path><path d="M0 54L26.7 51C53.3 48 106.7 42 160 40C213.3 38 266.7 40 320 41.8C373.3 43.7 426.7 45.3 480 44.5C533.3 43.7 586.7 40.3 640 39.8C693.3 39.3 746.7 41.7 800 44.5C853.3 47.3 906.7 50.7 933.3 52.3L960 54L960 0L933.3 0C906.7 0 853.3 0 800 0C746.7 0 693.3 0 640 0C586.7 0 533.3 0 480 0C426.7 0 373.3 0 320 0C266.7 0 213.3 0 160 0C106.7 0 53.3 0 26.7 0L0 0Z" fill="#8476fb"></path><path d="M0 40L26.7 37.8C53.3 35.7 106.7 31.3 160 33.3C213.3 35.3 266.7 43.7 320 46.3C373.3 49 426.7 46 480 43C533.3 40 586.7 37 640 36.5C693.3 36 746.7 38 800 40.5C853.3 43 906.7 46 933.3 47.5L960 49L960 0L933.3 0C906.7 0 853.3 0 800 0C746.7 0 693.3 0 640 0C586.7 0 533.3 0 480 0C426.7 0 373.3 0 320 0C266.7 0 213.3 0 160 0C106.7 0 53.3 0 26.7 0L0 0Z" fill="#3699ff"></path><path d="M0 28L26.7 28.7C53.3 29.3 106.7 30.7 160 32.3C213.3 34 266.7 36 320 36.5C373.3 37 426.7 36 480 34.2C533.3 32.3 586.7 29.7 640 31C693.3 32.3 746.7 37.7 800 40.3C853.3 43 906.7 43 933.3 43L960 43L960 0L933.3 0C906.7 0 853.3 0 800 0C746.7 0 693.3 0 640 0C586.7 0 533.3 0 480 0C426.7 0 373.3 0 320 0C266.7 0 213.3 0 160 0C106.7 0 53.3 0 26.7 0L0 0Z" fill="#00b1fc"></path><path d="M0 15L26.7 16.2C53.3 17.3 106.7 19.7 160 21.3C213.3 23 266.7 24 320 23.8C373.3 23.7 426.7 22.3 480 23.5C533.3 24.7 586.7 28.3 640 27.8C693.3 27.3 746.7 22.7 800 22.3C853.3 22 906.7 26 933.3 28L960 30L960 0L933.3 0C906.7 0 853.3 0 800 0C746.7 0 693.3 0 640 0C586.7 0 533.3 0 480 0C426.7 0 373.3 0 320 0C266.7 0 213.3 0 160 0C106.7 0 53.3 0 26.7 0L0 0Z" fill="#00c2e9"></path><path d="M0 18L26.7 18.2C53.3 18.3 106.7 18.7 160 18.5C213.3 18.3 266.7 17.7 320 16.8C373.3 16 426.7 15 480 15C533.3 15 586.7 16 640 15.2C693.3 14.3 746.7 11.7 800 11.7C853.3 11.7 906.7 14.3 933.3 15.7L960 17L960 0L933.3 0C906.7 0 853.3 0 800 0C746.7 0 693.3 0 640 0C586.7 0 533.3 0 480 0C426.7 0 373.3 0 320 0C266.7 0 213.3 0 160 0C106.7 0 53.3 0 26.7 0L0 0Z" fill="#30cfd0"></path></svg>